# Blender v2.78 (sub 0) OBJ File: ''
# www.blender.org
mtllib test2.mtl
o Cube
v 1.000000 -1.000000 -1.000000
v 1.000000 -1.000000 1.000000
v -1.000000 -1.000000 1.000000
v -1.000000 -1.000000 -1.000000
v 1.000000 1.000000 -0.999999
v 0.999999 1.000000 1.000001
v -1.000000 1.000000 1.000000
v -1.000000 1.000000 -1.000000
vt 0.5540 0.3694
vt 0.7386 0.5540
vt 0.5540 0.7386
vt 0.3694 0.5540
vt 0.3694 0.1847
vt 0.1847 0.3694
vt 0.0001 0.1847
vt 0.1847 0.0001
vt 0.5540 0.0001
vt 0.7386 0.1847
vt 0.9999 0.0001
vt 0.9999 0.2612
vt 0.7388 0.2612
vt 0.7388 0.0001
vt 0.1847 0.7386
vt 0.0001 0.5540
vn 0.0000 -1.0000 0.0000
vn 0.0000 1.0000 0.0000
vn 1.0000 0.0000 0.0000
vn -0.0000 -0.0000 1.0000
vn -1.0000 -0.0000 -0.0000
vn 0.0000 0.0000 -1.0000
usemtl Material
s off
f 1/1/1 2/2/1 3/3/1 4/4/1
f 5/5/2 8/6/2 7/7/2 6/8/2
f 1/1/3 5/5/3 6/9/3 2/10/3
f 2/11/4 6/12/4 7/13/4 3/14/4
f 3/15/5 7/16/5 8/6/5 4/4/5
f 5/5/6 1/1/6 4/4/6 8/6/6
