# Blender v2.78 (sub 0) OBJ File: 'traft.blend'
# www.blender.org
mtllib traft.mtl
o Cube
v 0.453912 0.053114 -0.975690
v 0.453912 0.053114 0.975690
v 0.589350 0.135921 0.975689
v 0.589350 0.135921 -0.975690
v -0.589350 1.759456 -0.975689
v -0.589350 1.759456 0.975690
v -0.453912 1.842264 0.975689
v -0.453912 1.842264 -0.975690
vt 0.5000 0.5000
vt 0.5000 0.2500
vt 0.7500 0.2500
vt 0.7500 0.5000
vt 0.2500 0.5000
vt 0.0001 0.5000
vt 0.0001 0.2500
vt 0.2500 0.2500
vt 0.2500 0.0001
vt 0.5000 0.0001
vt 0.5000 0.9999
vt 0.2500 0.9999
vt 0.2500 0.7500
vt 0.5000 0.7500
vn -0.5216 0.8532 0.0000
vn 0.5216 -0.8532 -0.0000
vn 0.8532 0.5216 -0.0000
vn -0.0000 -0.0000 -1.0000
vn -0.8532 -0.5216 0.0000
vn 0.0000 0.0000 1.0000
usemtl Material
s off
f 1/1/1 2/2/1 3/3/1 4/4/1
f 5/5/2 8/6/2 7/7/2 6/8/2
f 1/1/3 5/5/3 6/8/3 2/2/3
f 2/2/4 6/8/4 7/9/4 3/10/4
f 3/11/5 7/12/5 8/13/5 4/14/5
f 5/5/6 1/1/6 4/14/6 8/13/6
