# Blender v2.78 (sub 0) OBJ File: 'traft003.blend'
# www.blender.org
mtllib traft003.mtl
o Cube
v 0.894619 0.290821 -0.689011
v 0.898808 -0.008472 -0.147446
v -1.101146 -0.015021 -0.135595
v -1.105335 0.284271 -0.677160
v 0.894619 2.041296 0.278376
v 0.898807 1.742003 0.819942
v -1.101146 1.735454 0.831793
v -1.105335 2.034746 0.290228
vt 0.1983 0.5280
vt 0.0001 0.5465
vt 0.0001 0.2480
vt 0.2104 0.2373
vt 0.3917 0.5438
vt 0.4205 0.2542
vt 0.7102 0.2830
vt 0.6814 0.5727
vt 0.1972 0.7410
vt 0.9711 0.6015
vt 0.9999 0.3118
vt 0.2074 0.0001
vn -0.0000 -0.8752 -0.4837
vn 0.0000 0.8752 0.4837
vn 1.0000 0.0033 -0.0059
vn 0.0068 -0.4837 0.8752
vn -1.0000 -0.0033 0.0059
vn -0.0068 0.4837 -0.8752
usemtl マテリアル
s off
f 1/1/1 2/2/1 3/3/1 4/4/1
f 5/5/2 8/6/2 7/7/2 6/8/2
f 1/1/3 5/5/3 6/9/3 2/2/3
f 2/10/4 6/8/4 7/7/4 3/11/4
f 3/3/5 7/12/5 8/6/5 4/4/5
f 5/5/6 1/1/6 4/4/6 8/6/6
