# Blender v2.78 (sub 0) OBJ File: 'traft003.blend'
# www.blender.org
mtllib traft003.mtl
o 立方体
v -0.328506 1.878202 -1.389668
v 0.831258 1.907352 0.378756
v -0.200138 1.898285 -1.474185
v 0.959627 1.927435 0.294238
v -0.083473 -0.218767 -1.515800
v 1.076292 -0.189617 0.252624
v 0.044896 -0.198684 -1.600318
v 1.204660 -0.169534 0.168106
vt 0.6667 0.3333
vt 0.3333 0.3333
vt 0.3333 0.0000
vt 0.6667 0.0000
vt 0.3333 0.6667
vt 0.0000 0.6667
vt 0.0000 0.3333
vt 0.3333 0.3333
vt 0.0000 0.0000
vt 0.3333 0.0000
vt 0.3333 0.6667
vt 0.3333 0.3333
vt 0.6667 0.3333
vt 0.6667 0.6667
vt 1.0000 0.3333
vt 0.6667 0.3333
vt 0.6667 0.0000
vt 1.0000 0.0000
vt 0.3333 0.6667
vt 0.3333 1.0000
vt 0.0000 1.0000
vt 0.0000 0.6667
vn -0.1159 0.9915 0.0596
vn 0.8282 0.1296 -0.5453
vn 0.1159 -0.9915 -0.0596
vn -0.8282 -0.1296 0.5453
vn -0.5484 -0.0138 -0.8361
vn 0.5484 0.0138 0.8361
usemtl マテリアル.002
s off
f 1/1/1 2/2/1 4/3/1 3/4/1
f 3/5/2 4/6/2 8/7/2 7/8/2
f 7/8/3 8/7/3 6/9/3 5/10/3
f 5/11/4 6/12/4 2/13/4 1/14/4
f 3/15/5 7/16/5 5/17/5 1/18/5
f 8/19/6 4/20/6 2/21/6 6/22/6
