# Blender v2.78 (sub 0) OBJ File: 'traft4.blend'
# www.blender.org
mtllib traft4.mtl
o Cube
v -0.060336 -0.055161 -0.974127
v -0.058618 -0.052220 0.977249
v 0.100098 -0.049064 0.977105
v 0.098380 -0.052005 -0.974272
v -0.100098 1.944442 -0.977104
v -0.098380 1.947382 0.974272
v 0.060336 1.950538 0.974127
v 0.058618 1.947598 -0.977249
vt 0.5000 0.5000
vt 0.5000 0.2500
vt 0.7500 0.2500
vt 0.7500 0.5000
vt 0.2500 0.5000
vt 0.0001 0.5000
vt 0.0001 0.2500
vt 0.2500 0.2500
vt 0.2500 0.0001
vt 0.5000 0.0001
vt 0.5000 0.9999
vt 0.2500 0.9999
vt 0.2500 0.7500
vt 0.5000 0.7500
vn -0.0199 0.9998 -0.0015
vn 0.0199 -0.9998 0.0015
vn 0.9998 0.0199 -0.0009
vn -0.0009 -0.0015 -1.0000
vn -0.9998 -0.0199 0.0009
vn 0.0009 0.0015 1.0000
usemtl Material
s off
f 1/1/1 2/2/1 3/3/1 4/4/1
f 5/5/2 8/6/2 7/7/2 6/8/2
f 1/1/3 5/5/3 6/8/3 2/2/3
f 2/2/4 6/8/4 7/9/4 3/10/4
f 3/11/5 7/12/5 8/13/5 4/14/5
f 5/5/6 1/1/6 4/14/6 8/13/6
