# Blender v2.78 (sub 0) OBJ File: 'traft003.blend'
# www.blender.org
mtllib traft003.mtl
o 立方体
v 0.930320 2.018603 -0.559920
v -1.183337 2.047753 -0.490407
v 0.935649 2.038687 -0.406318
v -1.178008 2.067837 -0.336806
v 0.910440 -0.078366 -0.285046
v -1.203216 -0.049216 -0.215533
v 0.915769 -0.058282 -0.131444
v -1.197888 -0.029132 -0.061932
vt 0.6667 0.3333
vt 0.3333 0.3333
vt 0.3333 0.0000
vt 0.6667 0.0000
vt 0.3333 0.6667
vt 0.0000 0.6667
vt 0.0000 0.3333
vt 0.3333 0.3333
vt 0.0000 0.0000
vt 0.3333 0.0000
vt 0.3333 0.6667
vt 0.3333 0.3333
vt 0.6667 0.3333
vt 0.6667 0.6667
vt 1.0000 0.3333
vt 0.6667 0.3333
vt 0.6667 0.0000
vt 1.0000 0.0000
vt 0.3333 0.6667
vt 0.3333 1.0000
vt 0.0000 1.0000
vt 0.0000 0.6667
vn 0.0094 0.9915 -0.1300
vn 0.0344 0.1296 0.9910
vn -0.0094 -0.9915 0.1300
vn -0.0344 -0.1296 -0.9910
vn 0.9994 -0.0138 -0.0329
vn -0.9994 0.0138 0.0329
usemtl マテリアル.002
s off
f 1/1/1 2/2/1 4/3/1 3/4/1
f 3/5/2 4/6/2 8/7/2 7/8/2
f 7/8/3 8/7/3 6/9/3 5/10/3
f 5/11/4 6/12/4 2/13/4 1/14/4
f 3/15/5 7/16/5 5/17/5 1/18/5
f 8/19/6 4/20/6 2/21/6 6/22/6
